<svg xmlns="http://www.w3.org/2000/svg" fill="none" viewBox="0 0 283 64"><path fill="black" d="M141.04 16c-11.04 0-19 7.2-19 18s8.96 18 20 18c6.67 0 12.55-2.64 16.19-7.09l-7.65-7.65c-2.09 2.09-5.52 3.14-8.54 3.14-7.55 0-13.64-6.09-13.64-13.64 0-7.55 6.09-13.64 13.64-13.64 3.14 0 6.05 1.05 8.54 3.14l7.65-7.65C153.59 2.64 147.71 0 141.04 0c-12.08 0-21.04 7.2-21.04 18s8.96 18 20.04 18c6.67 0 12.55-2.64 16.19-7.09l-7.65-7.65c-2.09 2.09-5.52 3.14-8.54 3.14-7.55 0-13.64-6.09-13.64-13.64 0-7.55 6.09-13.64 13.64-13.64 3.14 0 6.05 1.05 8.54 3.14l7.65-7.65C153.59 2.64 147.71 0 141.04 0Z"/><path fill="black" d="M181.4 16h-11.04v32h11.04V16Z"/><path fill="black" d="M200.36 48h11.04V32.64h15.36V21.36H211.4V16h-11.04v32Z"/><path fill="black" d="M224.64 48h11.04V16h-11.04v32Z"/><path fill="black" d="M243.6 48h13.68c8.16 0 14.52-4.32 14.52-12.24 0-5.04-2.64-8.64-7.68-10.56l7.2-9.36h-13.2l-5.52 7.68h-2.88V16H243.6v32Zm11.88-18.24h2.64c3.36 0 5.04 1.68 5.04 4.08 0 2.4-1.68 4.08-5.04 4.08h-2.64v-8.16Z"/></svg>